<svg xmlns="http://www.w3.org/2000/svg" viewBox="0 0 32 32">
  <!-- Coffee Cup -->
  <path fill="#5E4B3E" d="M8,10v12c0,2.2,1.8,4,4,4h8c2.2,0,4-1.8,4-4V10H8z"/>
  <!-- Coffee Handle -->
  <path fill="#5E4B3E" d="M24,14v4c1.1,0,2-0.9,2-2s-0.9-2-2-2z"/>
  <!-- Coffee Liquid -->
  <path fill="#3A2213" d="M10,12v10c0,1.1,0.9,2,2,2h8c1.1,0,2-0.9,2-2V12H10z"/>
  <!-- Steam -->
  <path fill="#88A872" opacity="0.7" d="M14,6c0,0-1,1-1,2s1,2,1,2s1-1,1-2S14,6,14,6z"/>
  <path fill="#88A872" opacity="0.7" d="M18,4c0,0-1,1-1,2s1,2,1,2s1-1,1-2S18,4,18,4z"/>
</svg>
