<svg xmlns="http://www.w3.org/2000/svg" width="512" height="512" viewBox="0 0 512 512" fill="none">
  <rect width="512" height="512" rx="128" fill="#F8F1E9"/>
  <path d="M346 186C346 170.536 333.464 158 318 158H194C178.536 158 166 170.536 166 186V246C166 261.464 178.536 274 194 274H234V298C234 301.866 238.134 304.134 241.172 301.757L279 274H318C333.464 274 346 261.464 346 246V186Z" fill="#88A872"/>
  <path d="M256 354C311.228 354 356 309.228 356 254C356 198.772 311.228 154 256 154C200.772 154 156 198.772 156 254C156 309.228 200.772 354 256 354Z" stroke="#5E3A24" stroke-width="24" stroke-linecap="round" stroke-linejoin="round"/>
  <path d="M256 194V254L296 274" stroke="#5E3A24" stroke-width="24" stroke-linecap="round" stroke-linejoin="round"/>
</svg>
